<svg xmlns="http://www.w3.org/2000/svg" width="114" viewBox="0 0 114 64"><path fill="#fff" d="M14.57 58c-.66 0-1.17-.17-1.53-.51-.34-.36-.51-.87-.51-1.53V38.89c0-.66.17-1.16.51-1.5.36-.36.87-.54 1.53-.54h5.82c3.54 0 6.27.91 8.19 2.73 1.94 1.82 2.91 4.43 2.91 7.83 0 1.7-.25 3.21-.75 4.53-.48 1.3-1.2 2.4-2.16 3.3-.94.9-2.1 1.59-3.48 2.07-1.36.46-2.93.69-4.71.69h-5.82Zm1.8-3.18h3.78c1.24 0 2.31-.15 3.21-.45.92-.32 1.68-.78 2.28-1.38.62-.62 1.08-1.39 1.38-2.31.3-.94.45-2.03.45-3.27 0-2.48-.61-4.33-1.83-5.55-1.22-1.22-3.05-1.83-5.49-1.83h-3.78v14.79ZM41.35 58.3c-1.66 0-3.09-.31-4.29-.93-1.2-.62-2.13-1.5-2.79-2.64-.64-1.14-.96-2.49-.96-4.05 0-1.52.31-2.85.93-3.99a6.976 6.976 0 0 1 2.61-2.67c1.12-.66 2.39-.99 3.81-.99 1.04 0 1.97.17 2.79.51.84.34 1.55.83 2.13 1.47.6.64 1.05 1.42 1.35 2.34.32.9.48 1.92.48 3.06 0 .36-.13.64-.39.84-.24.18-.59.27-1.05.27h-9.63v-2.16h8.43l-.48.45c0-.92-.14-1.69-.42-2.31-.26-.62-.65-1.09-1.17-1.41-.5-.34-1.13-.51-1.89-.51-.84 0-1.56.2-2.16.6-.58.38-1.03.93-1.35 1.65-.3.7-.45 1.54-.45 2.52v.21c0 1.64.38 2.87 1.14 3.69.78.8 1.92 1.2 3.42 1.2.52 0 1.1-.06 1.74-.18a6.71 6.71 0 0 0 1.86-.69c.42-.24.79-.34 1.11-.3.32.02.57.13.75.33.2.2.32.45.36.75.04.28-.02.57-.18.87-.14.3-.39.56-.75.78-.7.44-1.51.77-2.43.99-.9.2-1.74.3-2.52.3Zm13.5 0c-.86 0-1.77-.09-2.73-.27-.96-.18-1.82-.49-2.58-.93-.32-.2-.55-.43-.69-.69a1.71 1.71 0 0 1-.15-.81c.04-.28.14-.52.3-.72.18-.2.4-.33.66-.39.28-.06.58-.01.9.15.8.38 1.55.65 2.25.81.7.14 1.39.21 2.07.21.96 0 1.67-.16 2.13-.48.48-.34.72-.78.72-1.32 0-.46-.16-.81-.48-1.05-.3-.26-.76-.45-1.38-.57l-3-.57c-1.24-.24-2.19-.69-2.85-1.35-.64-.68-.96-1.55-.96-2.61 0-.96.26-1.79.78-2.49.54-.7 1.28-1.24 2.22-1.62.94-.38 2.02-.57 3.24-.57.88 0 1.7.1 2.46.3.78.18 1.53.47 2.25.87.3.16.5.37.6.63.12.26.15.53.09.81-.06.26-.18.5-.36.72-.18.2-.41.33-.69.39-.26.04-.56-.02-.9-.18-.62-.32-1.22-.55-1.8-.69-.56-.14-1.1-.21-1.62-.21-.98 0-1.71.17-2.19.51-.46.34-.69.79-.69 1.35 0 .42.14.77.42 1.05.28.28.71.47 1.29.57l3 .57c1.3.24 2.28.68 2.94 1.32.68.64 1.02 1.5 1.02 2.58 0 1.46-.57 2.61-1.71 3.45-1.14.82-2.66 1.23-4.56 1.23Zm10.239-.09c-.6 0-1.06-.18-1.38-.54-.32-.36-.48-.86-.48-1.5V45.16c0-.66.16-1.16.48-1.5.32-.36.78-.54 1.38-.54.6 0 1.06.18 1.38.54.34.34.51.84.51 1.5v11.01c0 .64-.16 1.14-.48 1.5-.32.36-.79.54-1.41.54Zm0-17.88c-.7 0-1.25-.17-1.65-.51-.38-.36-.57-.85-.57-1.47 0-.64.19-1.13.57-1.47.4-.34.95-.51 1.65-.51.72 0 1.27.17 1.65.51.38.34.57.83.57 1.47 0 .62-.19 1.11-.57 1.47-.38.34-.93.51-1.65.51ZM76.816 63.7c-1.08 0-2.13-.1-3.15-.3-1-.2-1.91-.51-2.73-.93-.38-.2-.64-.44-.78-.72-.12-.28-.16-.57-.12-.87.06-.28.18-.53.36-.75.2-.22.44-.37.72-.45.28-.08.57-.04.87.12.88.44 1.71.72 2.49.84.8.14 1.48.21 2.04.21 1.34 0 2.34-.33 3-.99.68-.64 1.02-1.6 1.02-2.88v-2.7h.27c-.3 1.02-.93 1.84-1.89 2.46-.94.6-2.01.9-3.21.9-1.32 0-2.47-.3-3.45-.9-.98-.62-1.74-1.48-2.28-2.58-.54-1.1-.81-2.38-.81-3.84 0-1.1.15-2.09.45-2.97.32-.9.76-1.67 1.32-2.31.58-.64 1.27-1.13 2.07-1.47.82-.36 1.72-.54 2.7-.54 1.24 0 2.32.31 3.24.93.94.6 1.55 1.4 1.83 2.4l-.3.75v-2.13c0-.62.16-1.09.48-1.41.34-.32.8-.48 1.38-.48.6 0 1.06.16 1.38.48.32.32.48.79.48 1.41v11.55c0 2.38-.63 4.17-1.89 5.37-1.26 1.2-3.09 1.8-5.49 1.8Zm-.09-8.91c.78 0 1.45-.18 2.01-.54.56-.36.99-.87 1.29-1.53.32-.68.48-1.48.48-2.4 0-1.38-.34-2.46-1.02-3.24-.68-.8-1.6-1.2-2.76-1.2-.78 0-1.45.18-2.01.54-.56.36-1 .87-1.32 1.53-.3.66-.45 1.45-.45 2.37 0 1.38.34 2.47 1.02 3.27.68.8 1.6 1.2 2.76 1.2Zm12.315 3.45c-.6 0-1.06-.16-1.38-.48-.32-.34-.48-.82-.48-1.44V44.98c0-.62.16-1.09.48-1.41.32-.32.77-.48 1.35-.48.58 0 1.03.16 1.35.48.32.32.48.79.48 1.41v2.04l-.33-.75c.44-1.06 1.12-1.86 2.04-2.4.94-.56 2-.84 3.18-.84 1.18 0 2.15.22 2.91.66.76.44 1.33 1.11 1.71 2.01.38.88.57 2 .57 3.36v7.26c0 .62-.16 1.1-.48 1.44-.32.32-.78.48-1.38.48-.6 0-1.07-.16-1.41-.48-.32-.34-.48-.82-.48-1.44v-7.08c0-1.14-.22-1.97-.66-2.49-.42-.52-1.08-.78-1.98-.78-1.1 0-1.98.35-2.64 1.05-.64.68-.96 1.59-.96 2.73v6.57c0 1.28-.63 1.92-1.89 1.92Z"/><path fill="#0ACF83" d="M6.852 32.009a4.753 4.753 0 0 0 3.42-1.47 5.111 5.111 0 0 0 1.417-3.544v-5.016H6.852a4.755 4.755 0 0 0-3.373 1.496 5.112 5.112 0 0 0-1.391 3.52c0 1.316.5 2.58 1.39 3.518a4.756 4.756 0 0 0 3.374 1.496ZM31.018 26.995c0-1.33-.51-2.605-1.417-3.546a4.753 4.753 0 0 0-3.42-1.47h-4.837v5.016a5.107 5.107 0 0 0 1.443 3.497 4.75 4.75 0 0 0 3.394 1.442 4.75 4.75 0 0 0 3.394-1.442 5.107 5.107 0 0 0 1.443-3.497Z"/><path fill="#A259FF" d="M1.998 16.987c0-1.33.51-2.605 1.417-3.545a4.753 4.753 0 0 1 3.42-1.469h4.836v10.03H6.835a4.753 4.753 0 0 1-3.42-1.47 5.112 5.112 0 0 1-1.417-3.546Z"/><path fill="#F24E1E" d="M31.038 16.987c0 1.33-.51 2.605-1.417 3.546a4.753 4.753 0 0 1-3.42 1.47h-4.84v-10.03h4.836c.636 0 1.265.13 1.852.381a4.83 4.83 0 0 1 1.57 1.087c.45.465.806 1.018 1.05 1.627.243.608.369 1.26.369 1.92ZM1.998 6.963c0-.66.124-1.312.367-1.92.243-.61.6-1.163 1.048-1.629a4.83 4.83 0 0 1 1.57-1.088 4.69 4.69 0 0 1 1.852-.382h4.836v10.03H6.835a4.753 4.753 0 0 1-3.419-1.469 5.111 5.111 0 0 1-1.418-3.543Z"/><path fill="#0ACF83" d="M38.889 32.009a4.753 4.753 0 0 0 3.42-1.47 5.111 5.111 0 0 0 1.417-3.544v-5.016h-4.837a4.755 4.755 0 0 0-3.373 1.496 5.112 5.112 0 0 0-1.391 3.52c0 1.316.5 2.58 1.39 3.518a4.756 4.756 0 0 0 3.374 1.496Z"/><path fill="#A259FF" d="M34.035 16.987c0-1.33.51-2.605 1.417-3.545a4.753 4.753 0 0 1 3.42-1.469h4.836v10.03h-4.836a4.753 4.753 0 0 1-3.42-1.47 5.112 5.112 0 0 1-1.417-3.546Z"/><path fill="#FF7262" d="M21.382 1.944h4.838c1.27.02 2.481.557 3.372 1.495a5.112 5.112 0 0 1 1.391 3.52c0 1.316-.5 2.58-1.39 3.519a4.755 4.755 0 0 1-3.373 1.495h-4.838V1.943Z"/><path fill="#1ABCFE" d="M21.344 27c0 .991-.283 1.961-.815 2.786a4.88 4.88 0 0 1-2.17 1.847 4.678 4.678 0 0 1-2.796.285 4.786 4.786 0 0 1-2.477-1.373 5.076 5.076 0 0 1-1.323-2.568 5.187 5.187 0 0 1 .276-2.898 4.98 4.98 0 0 1 1.782-2.25 4.716 4.716 0 0 1 2.687-.845c1.283 0 2.513.53 3.42 1.47a5.112 5.112 0 0 1 1.416 3.545ZM43.756 6.924c0 .992-.284 1.962-.815 2.787a4.88 4.88 0 0 1-2.171 1.847 4.679 4.679 0 0 1-2.795.285 4.787 4.787 0 0 1-2.477-1.373 5.075 5.075 0 0 1-1.324-2.568 5.186 5.186 0 0 1 .276-2.898 4.98 4.98 0 0 1 1.782-2.25 4.716 4.716 0 0 1 2.688-.845c1.282 0 2.512.53 3.42 1.47a5.111 5.111 0 0 1 1.416 3.545Z"/><path fill="#fff" d="M58.43 0 45.81 34h3.36L61.835 0H58.43Z"/><path fill="#EA0EDD" d="M83.134 21.565a8.91 8.91 0 0 1-.325 2.475 4.909 4.909 0 0 1-1.064 1.946c-.494.55-1.15.975-1.966 1.277-.816.301-1.82.454-3.012.457-1.07 0-1.99-.146-2.76-.439a4.928 4.928 0 0 1-1.893-1.234 4.853 4.853 0 0 1-1.085-1.896 8.116 8.116 0 0 1-.335-2.421V2.656H65.73v18.836c0 1.702.207 3.191.622 4.468a7.497 7.497 0 0 0 1.947 3.169c.885.84 2.012 1.47 3.383 1.891 1.37.421 3.012.631 4.924.63 2.08 0 3.847-.22 5.302-.658 1.455-.438 2.641-1.09 3.56-1.954a7.51 7.51 0 0 0 2.001-3.234c.415-1.291.622-2.795.623-4.513V2.656h-4.958v18.91ZM103.866 15.865l8.711-13.209h-5.483L101.45 12.76 95.877 2.656H90.34l8.224 13.648-9.144 14.98h5.429l5.897-11.49 7.052 11.49h5.536l-9.468-15.419Z"/></svg>